<svg width="12" height="12" viewBox="0 0 12 12" fill="none" xmlns="http://www.w3.org/2000/svg">
<path fill-rule="evenodd" clip-rule="evenodd" d="M0.666656 0.666667C0.666656 0.489856 0.736895 0.320286 0.861919 0.195262C0.986943 0.0702379 1.15651 2.82732e-10 1.33332 2.82732e-10H2.33332C2.48652 -4.45962e-06 2.63505 0.0527551 2.75392 0.149403C2.87278 0.246051 2.95474 0.380689 2.98599 0.530667L3.29266 2H10.6667C10.7657 2 10.8636 2.02208 10.9531 2.06465C11.0425 2.10722 11.1214 2.1692 11.1839 2.24608C11.2464 2.32296 11.291 2.41281 11.3145 2.50909C11.3379 2.60537 11.3395 2.70566 11.3193 2.80267L10.486 6.80267C10.4547 6.95265 10.3728 7.08728 10.2539 7.18393C10.135 7.28058 9.98652 7.33334 9.83332 7.33333H4.40332L4.54199 8H9.33332C9.75783 8.00022 10.1713 8.13551 10.5138 8.38629C10.8563 8.63707 11.1101 8.99032 11.2386 9.39494C11.367 9.79955 11.3633 10.2345 11.2281 10.6369C11.0929 11.0393 10.8332 11.3883 10.4865 11.6333C10.1399 11.8783 9.72424 12.0066 9.29979 11.9997C8.87533 11.9928 8.46409 11.8511 8.12556 11.5949C7.78702 11.3388 7.53877 10.9816 7.41672 10.575C7.29467 10.1684 7.30515 9.73356 7.44666 9.33333H5.88666C6.01643 9.70114 6.03584 10.0989 5.94248 10.4775C5.84912 10.8562 5.64707 11.1994 5.3612 11.4647C5.07534 11.73 4.71813 11.906 4.33354 11.9709C3.94896 12.0358 3.55378 11.9869 3.19666 11.8301C2.83953 11.6733 2.53604 11.4155 2.32354 11.0885C2.11103 10.7614 1.9988 10.3794 2.00064 9.98936C2.00248 9.59934 2.11832 9.21837 2.3339 8.89334C2.54949 8.56831 2.8554 8.3134 3.21399 8.16L1.79066 1.33333H1.33332C1.15651 1.33333 0.986943 1.2631 0.861919 1.13807C0.736895 1.01305 0.666656 0.843478 0.666656 0.666667Z" fill="#DEE2EB"/>
</svg>
