<svg width="42" height="42" viewBox="0 0 42 42" fill="none" xmlns="http://www.w3.org/2000/svg">
<path d="M4.66667 42C3.42899 42 2.242 41.5083 1.36683 40.6332C0.491665 39.758 0 38.571 0 37.3333V4.66667C0 3.42899 0.491665 2.242 1.36683 1.36683C2.242 0.491665 3.42899 0 4.66667 0H37.3333C38.571 0 39.758 0.491665 40.6332 1.36683C41.5083 2.242 42 3.42899 42 4.66667V37.3333C42 38.571 41.5083 39.758 40.6332 40.6332C39.758 41.5083 38.571 42 37.3333 42H4.66667ZM7 23.3333H26.8333L18.6667 31.5L21.98 34.8133L35.7933 21L21.98 7.18667L18.6667 10.5L26.8333 18.6667H7V23.3333Z" fill="#F5F5F5"/>
</svg>
